<svg xmlns="http://www.w3.org/2000/svg" viewBox="0 0 100 100">
  <rect width="100" height="100" fill="#0f172a" rx="20"/>
  <rect x="35.00" y="14.00" width="6.50" height="12.50" fill="#D6B779" /><rect x="41.00" y="14.00" width="6.50" height="12.50" fill="#D6B779" /><rect x="47.00" y="14.00" width="6.50" height="12.50" fill="#D6B779" /><rect x="53.00" y="14.00" width="6.50" height="12.50" fill="#D6B779" /><rect x="59.00" y="14.00" width="6.50" height="12.50" fill="#D6B779" /><rect x="65.00" y="14.00" width="6.50" height="12.50" fill="#D6B779" /><path d="M 71.00,18.56 H 75.44 V 26.50 H 74.48 V 19.52 H 71.00 Z" fill="#D6B779" /><path d="M 71.00,20.48 H 73.52 V 26.50 H 72.56 V 21.44 H 71.00 Z" fill="#D6B779" /><rect x="35.00" y="26.00" width="6.50" height="12.50" fill="#D6B779" /><rect x="41.00" y="26.00" width="6.50" height="12.50" fill="#D6B779" /><path d="M 48.56,30.56 H 53.50 V 31.52 H 49.52 V 38.50 H 48.56 Z" fill="#D6B779" /><path d="M 50.48,32.48 H 53.50 V 33.44 H 51.44 V 38.50 H 50.48 Z" fill="#D6B779" /><rect x="53.00" y="30.56" width="6.50" height="0.96" fill="#D6B779" /><rect x="53.00" y="32.48" width="6.50" height="0.96" fill="#D6B779" /><rect x="59.00" y="30.56" width="6.50" height="0.96" fill="#D6B779" /><rect x="59.00" y="32.48" width="6.50" height="0.96" fill="#D6B779" /><rect x="65.00" y="26.00" width="6.50" height="12.50" fill="#D6B779" /><rect x="71.00" y="26.00" width="6.50" height="12.50" fill="#D6B779" /><path d="M 77.00,30.56 H 81.44 V 38.50 H 80.48 V 31.52 H 77.00 Z" fill="#D6B779" /><path d="M 77.00,32.48 H 79.52 V 38.50 H 78.56 V 33.44 H 77.00 Z" fill="#D6B779" /><rect x="35.00" y="38.00" width="6.50" height="12.50" fill="#D6B779" /><rect x="41.00" y="38.00" width="6.50" height="12.50" fill="#D6B779" /><rect x="47.00" y="38.00" width="6.50" height="12.50" fill="#D6B779" /><rect x="53.00" y="38.00" width="6.50" height="12.50" fill="#D6B779" /><rect x="59.00" y="38.00" width="6.50" height="12.50" fill="#D6B779" /><rect x="65.00" y="38.00" width="6.50" height="12.50" fill="#D6B779" /><path d="M 72.56,42.56 H 77.50 V 43.52 H 73.52 V 50.50 H 72.56 Z" fill="#D6B779" /><path d="M 74.48,44.48 H 77.50 V 45.44 H 75.44 V 50.50 H 74.48 Z" fill="#D6B779" /><path d="M 77.00,45.44 H 81.44 V 38.00 H 80.48 V 44.48 H 77.00 Z" fill="#D6B779" /><path d="M 77.00,43.52 H 79.52 V 38.00 H 78.56 V 42.56 H 77.00 Z" fill="#D6B779" /><rect x="35.00" y="50.00" width="6.50" height="12.50" fill="#D6B779" /><rect x="41.00" y="50.00" width="6.50" height="12.50" fill="#D6B779" /><path d="M 48.56,54.56 H 53.50 V 55.52 H 49.52 V 62.50 H 48.56 Z" fill="#D6B779" /><path d="M 50.48,56.48 H 53.50 V 57.44 H 51.44 V 62.50 H 50.48 Z" fill="#D6B779" /><rect x="53.00" y="54.56" width="6.50" height="0.96" fill="#D6B779" /><rect x="53.00" y="56.48" width="6.50" height="0.96" fill="#D6B779" /><rect x="59.00" y="54.56" width="6.50" height="0.96" fill="#D6B779" /><rect x="59.00" y="56.48" width="6.50" height="0.96" fill="#D6B779" /><rect x="65.00" y="54.56" width="6.50" height="0.96" fill="#D6B779" /><rect x="65.00" y="56.48" width="6.50" height="0.96" fill="#D6B779" /><path d="M 71.00,57.44 H 75.44 V 50.00 H 74.48 V 56.48 H 71.00 Z" fill="#D6B779" /><path d="M 71.00,55.52 H 73.52 V 50.00 H 72.56 V 54.56 H 71.00 Z" fill="#D6B779" /><rect x="35.00" y="62.00" width="6.50" height="12.50" fill="#D6B779" /><rect x="41.00" y="62.00" width="6.50" height="12.50" fill="#D6B779" /><rect x="48.56" y="62.00" width="0.96" height="12.50" fill="#D6B779" /><rect x="50.48" y="62.00" width="0.96" height="12.50" fill="#D6B779" /><path d="M 36.56,74.00 V 81.44 H 41.50 V 80.48 H 37.52 V 74.00 Z" fill="#D6B779" /><path d="M 38.48,74.00 V 79.52 H 41.50 V 78.56 H 39.44 V 74.00 Z" fill="#D6B779" /><rect x="41.00" y="78.56" width="6.50" height="0.96" fill="#D6B779" /><rect x="41.00" y="80.48" width="6.50" height="0.96" fill="#D6B779" /><path d="M 47.00,81.44 H 51.44 V 74.00 H 50.48 V 80.48 H 47.00 Z" fill="#D6B779" /><path d="M 47.00,79.52 H 49.52 V 74.00 H 48.56 V 78.56 H 47.00 Z" fill="#D6B779" />
</svg>