<svg xmlns="http://www.w3.org/2000/svg" viewBox="0 0 100 100">
  <rect width="100" height="100" fill="#0f172a" rx="20"/>
  <rect x="23.75" y="5.00" width="8.00" height="15.50" fill="#D6B779" /><rect x="31.25" y="5.00" width="8.00" height="15.50" fill="#D6B779" /><rect x="38.75" y="5.00" width="8.00" height="15.50" fill="#D6B779" /><rect x="46.25" y="5.00" width="8.00" height="15.50" fill="#D6B779" /><rect x="53.75" y="5.00" width="8.00" height="15.50" fill="#D6B779" /><rect x="61.25" y="5.00" width="8.00" height="15.50" fill="#D6B779" /><path d="M 68.75,10.70 H 74.30 V 20.50 H 73.10 V 11.90 H 68.75 Z" fill="#D6B779" /><path d="M 68.75,13.10 H 71.90 V 20.50 H 70.70 V 14.30 H 68.75 Z" fill="#D6B779" /><rect x="23.75" y="20.00" width="8.00" height="15.50" fill="#D6B779" /><rect x="31.25" y="20.00" width="8.00" height="15.50" fill="#D6B779" /><path d="M 40.70,25.70 H 46.75 V 26.90 H 41.90 V 35.50 H 40.70 Z" fill="#D6B779" /><path d="M 43.10,28.10 H 46.75 V 29.30 H 44.30 V 35.50 H 43.10 Z" fill="#D6B779" /><rect x="46.25" y="25.70" width="8.00" height="1.20" fill="#D6B779" /><rect x="46.25" y="28.10" width="8.00" height="1.20" fill="#D6B779" /><rect x="53.75" y="25.70" width="8.00" height="1.20" fill="#D6B779" /><rect x="53.75" y="28.10" width="8.00" height="1.20" fill="#D6B779" /><rect x="61.25" y="20.00" width="8.00" height="15.50" fill="#D6B779" /><rect x="68.75" y="20.00" width="8.00" height="15.50" fill="#D6B779" /><path d="M 76.25,25.70 H 81.80 V 35.50 H 80.60 V 26.90 H 76.25 Z" fill="#D6B779" /><path d="M 76.25,28.10 H 79.40 V 35.50 H 78.20 V 29.30 H 76.25 Z" fill="#D6B779" /><rect x="23.75" y="35.00" width="8.00" height="15.50" fill="#D6B779" /><rect x="31.25" y="35.00" width="8.00" height="15.50" fill="#D6B779" /><rect x="38.75" y="35.00" width="8.00" height="15.50" fill="#D6B779" /><rect x="46.25" y="35.00" width="8.00" height="15.50" fill="#D6B779" /><rect x="53.75" y="35.00" width="8.00" height="15.50" fill="#D6B779" /><rect x="61.25" y="35.00" width="8.00" height="15.50" fill="#D6B779" /><path d="M 70.70,40.70 H 76.75 V 41.90 H 71.90 V 50.50 H 70.70 Z" fill="#D6B779" /><path d="M 73.10,43.10 H 76.75 V 44.30 H 74.30 V 50.50 H 73.10 Z" fill="#D6B779" /><path d="M 76.25,44.30 H 81.80 V 35.00 H 80.60 V 43.10 H 76.25 Z" fill="#D6B779" /><path d="M 76.25,41.90 H 79.40 V 35.00 H 78.20 V 40.70 H 76.25 Z" fill="#D6B779" /><rect x="23.75" y="50.00" width="8.00" height="15.50" fill="#D6B779" /><rect x="31.25" y="50.00" width="8.00" height="15.50" fill="#D6B779" /><path d="M 40.70,55.70 H 46.75 V 56.90 H 41.90 V 65.50 H 40.70 Z" fill="#D6B779" /><path d="M 43.10,58.10 H 46.75 V 59.30 H 44.30 V 65.50 H 43.10 Z" fill="#D6B779" /><rect x="46.25" y="55.70" width="8.00" height="1.20" fill="#D6B779" /><rect x="46.25" y="58.10" width="8.00" height="1.20" fill="#D6B779" /><rect x="53.75" y="55.70" width="8.00" height="1.20" fill="#D6B779" /><rect x="53.75" y="58.10" width="8.00" height="1.20" fill="#D6B779" /><rect x="61.25" y="55.70" width="8.00" height="1.20" fill="#D6B779" /><rect x="61.25" y="58.10" width="8.00" height="1.20" fill="#D6B779" /><path d="M 68.75,59.30 H 74.30 V 50.00 H 73.10 V 58.10 H 68.75 Z" fill="#D6B779" /><path d="M 68.75,56.90 H 71.90 V 50.00 H 70.70 V 55.70 H 68.75 Z" fill="#D6B779" /><rect x="23.75" y="65.00" width="8.00" height="15.50" fill="#D6B779" /><rect x="31.25" y="65.00" width="8.00" height="15.50" fill="#D6B779" /><rect x="40.70" y="65.00" width="1.20" height="15.50" fill="#D6B779" /><rect x="43.10" y="65.00" width="1.20" height="15.50" fill="#D6B779" /><path d="M 25.70,80.00 V 89.30 H 31.75 V 88.10 H 26.90 V 80.00 Z" fill="#D6B779" /><path d="M 28.10,80.00 V 86.90 H 31.75 V 85.70 H 29.30 V 80.00 Z" fill="#D6B779" /><rect x="31.25" y="85.70" width="8.00" height="1.20" fill="#D6B779" /><rect x="31.25" y="88.10" width="8.00" height="1.20" fill="#D6B779" /><path d="M 38.75,89.30 H 44.30 V 80.00 H 43.10 V 88.10 H 38.75 Z" fill="#D6B779" /><path d="M 38.75,86.90 H 41.90 V 80.00 H 40.70 V 85.70 H 38.75 Z" fill="#D6B779" />
</svg>