<svg xmlns="http://www.w3.org/2000/svg" viewBox="0 0 100 100" width="100" height="100">
  <rect x="0" y="0" width="100" height="100" fill="#0f172a" />
  <g>
  <rect x="32.00" y="14.00" width="6.50" height="12.50" fill="#D6B779" /><rect x="38.00" y="14.00" width="6.50" height="12.50" fill="#D6B779" /><rect x="44.00" y="14.00" width="6.50" height="12.50" fill="#D6B779" /><rect x="50.00" y="14.00" width="6.50" height="12.50" fill="#D6B779" /><rect x="56.00" y="14.00" width="6.50" height="12.50" fill="#D6B779" /><rect x="62.00" y="14.00" width="6.50" height="12.50" fill="#D6B779" /><path d="M 68.00,18.56 H 72.44 V 26.50 H 71.48 V 19.52 H 68.00 Z" fill="#D6B779" /><path d="M 68.00,20.48 H 70.52 V 26.50 H 69.56 V 21.44 H 68.00 Z" fill="#D6B779" /><rect x="32.00" y="26.00" width="6.50" height="12.50" fill="#D6B779" /><rect x="38.00" y="26.00" width="6.50" height="12.50" fill="#D6B779" /><path d="M 45.56,30.56 H 50.50 V 31.52 H 46.52 V 38.50 H 45.56 Z" fill="#D6B779" /><path d="M 47.48,32.48 H 50.50 V 33.44 H 48.44 V 38.50 H 47.48 Z" fill="#D6B779" /><rect x="50.00" y="30.56" width="6.50" height="0.96" fill="#D6B779" /><rect x="50.00" y="32.48" width="6.50" height="0.96" fill="#D6B779" /><rect x="56.00" y="30.56" width="6.50" height="0.96" fill="#D6B779" /><rect x="56.00" y="32.48" width="6.50" height="0.96" fill="#D6B779" /><rect x="62.00" y="26.00" width="6.50" height="12.50" fill="#D6B779" /><rect x="68.00" y="26.00" width="6.50" height="12.50" fill="#D6B779" /><path d="M 74.00,30.56 H 78.44 V 38.50 H 77.48 V 31.52 H 74.00 Z" fill="#D6B779" /><path d="M 74.00,32.48 H 76.52 V 38.50 H 75.56 V 33.44 H 74.00 Z" fill="#D6B779" /><rect x="32.00" y="38.00" width="6.50" height="12.50" fill="#D6B779" /><rect x="38.00" y="38.00" width="6.50" height="12.50" fill="#D6B779" /><rect x="44.00" y="38.00" width="6.50" height="12.50" fill="#D6B779" /><rect x="50.00" y="38.00" width="6.50" height="12.50" fill="#D6B779" /><rect x="56.00" y="38.00" width="6.50" height="12.50" fill="#D6B779" /><rect x="62.00" y="38.00" width="6.50" height="12.50" fill="#D6B779" /><path d="M 69.56,42.56 H 74.50 V 43.52 H 70.52 V 50.50 H 69.56 Z" fill="#D6B779" /><path d="M 71.48,44.48 H 74.50 V 45.44 H 72.44 V 50.50 H 71.48 Z" fill="#D6B779" /><path d="M 74.00,45.44 H 78.44 V 38.00 H 77.48 V 44.48 H 74.00 Z" fill="#D6B779" /><path d="M 74.00,43.52 H 76.52 V 38.00 H 75.56 V 42.56 H 74.00 Z" fill="#D6B779" /><rect x="32.00" y="50.00" width="6.50" height="12.50" fill="#D6B779" /><rect x="38.00" y="50.00" width="6.50" height="12.50" fill="#D6B779" /><path d="M 45.56,54.56 H 50.50 V 55.52 H 46.52 V 62.50 H 45.56 Z" fill="#D6B779" /><path d="M 47.48,56.48 H 50.50 V 57.44 H 48.44 V 62.50 H 47.48 Z" fill="#D6B779" /><rect x="50.00" y="54.56" width="6.50" height="0.96" fill="#D6B779" /><rect x="50.00" y="56.48" width="6.50" height="0.96" fill="#D6B779" /><rect x="56.00" y="54.56" width="6.50" height="0.96" fill="#D6B779" /><rect x="56.00" y="56.48" width="6.50" height="0.96" fill="#D6B779" /><rect x="62.00" y="54.56" width="6.50" height="0.96" fill="#D6B779" /><rect x="62.00" y="56.48" width="6.50" height="0.96" fill="#D6B779" /><path d="M 68.00,57.44 H 72.44 V 50.00 H 71.48 V 56.48 H 68.00 Z" fill="#D6B779" /><path d="M 68.00,55.52 H 70.52 V 50.00 H 69.56 V 54.56 H 68.00 Z" fill="#D6B779" /><rect x="32.00" y="62.00" width="6.50" height="12.50" fill="#D6B779" /><rect x="38.00" y="62.00" width="6.50" height="12.50" fill="#D6B779" /><rect x="45.56" y="62.00" width="0.96" height="12.50" fill="#D6B779" /><rect x="47.48" y="62.00" width="0.96" height="12.50" fill="#D6B779" /><path d="M 33.56,74.00 V 81.44 H 38.50 V 80.48 H 34.52 V 74.00 Z" fill="#D6B779" /><path d="M 35.48,74.00 V 79.52 H 38.50 V 78.56 H 36.44 V 74.00 Z" fill="#D6B779" /><rect x="38.00" y="78.56" width="6.50" height="0.96" fill="#D6B779" /><rect x="38.00" y="80.48" width="6.50" height="0.96" fill="#D6B779" /><path d="M 44.00,81.44 H 48.44 V 74.00 H 47.48 V 80.48 H 44.00 Z" fill="#D6B779" /><path d="M 44.00,79.52 H 46.52 V 74.00 H 45.56 V 78.56 H 44.00 Z" fill="#D6B779" />
  </g>
</svg>