<svg xmlns="http://www.w3.org/2000/svg" viewBox="0 0 100 100" width="100" height="100">
  <rect x="0" y="0" width="100" height="100" fill="#ffffff" />
  <g transform="translate(0, 2.3)">
    <rect x="26" y="14" width="6.5" height="12.5" fill="#000" />
<rect x="32" y="14" width="6.5" height="12.5" fill="#000" />
<rect x="38" y="14" width="6.5" height="12.5" fill="#000" />
<rect x="44" y="14" width="6.5" height="12.5" fill="#000" />
<rect x="50" y="14" width="6.5" height="12.5" fill="#000" />
<rect x="56" y="14" width="6.5" height="12.5" fill="#000" />
<rect x="62" y="14" width="6.5" height="12.5" fill="#000" />
<path d="M 68,18.56 H 72.44 V 26.5 H 71.48 V 19.52 H 68 Z" fill="#000" />
               <path d="M 68,20.48 H 70.52 V 26.5 H 69.56 V 21.44 H 68 Z" fill="#000" />
<rect x="26" y="26" width="6.5" height="12.5" fill="#000" />
<rect x="32" y="26" width="6.5" height="12.5" fill="#000" />
<path d="M 39.56,30.56 H 44.5 V 31.52 H 40.52 V 38.5 H 39.56 Z" fill="#000" />
               <path d="M 41.48,32.480000000000004 H 44.5 V 33.44 H 42.44 V 38.5 H 41.48 Z" fill="#000" />
<rect x="44" y="30.56" width="6.5" height="0.96" fill="#000" />
               <rect x="44" y="32.480000000000004" width="6.5" height="0.96" fill="#000" />
<rect x="50" y="30.56" width="6.5" height="0.96" fill="#000" />
               <rect x="50" y="32.480000000000004" width="6.5" height="0.96" fill="#000" />
<rect x="56" y="30.56" width="6.5" height="0.96" fill="#000" />
               <rect x="56" y="32.480000000000004" width="6.5" height="0.96" fill="#000" />
<rect x="62" y="30.56" width="6.5" height="0.96" fill="#000" />
               <rect x="62" y="32.480000000000004" width="6.5" height="0.96" fill="#000" />
<path d="M 68,33.44 H 72.44 V 26 H 71.48 V 32.480000000000004 H 68 Z" fill="#000" />
               <path d="M 68,31.52 H 70.52 V 26 H 69.56 V 30.56 H 68 Z" fill="#000" />
<rect x="26" y="38" width="6.5" height="12.5" fill="#000" />
<rect x="32" y="38" width="6.5" height="12.5" fill="#000" />
<rect x="38" y="38" width="6.5" height="12.5" fill="#000" />
<rect x="44" y="38" width="6.5" height="12.5" fill="#000" />
<rect x="50" y="38" width="6.5" height="12.5" fill="#000" />
<path d="M 56,42.56 H 60.44 V 50.5 H 59.48 V 43.519999999999996 H 56 Z" fill="#000" />
               <path d="M 56,44.480000000000004 H 58.52 V 50.5 H 57.56 V 45.44 H 56 Z" fill="#000" />
<rect x="26" y="50" width="6.5" height="12.5" fill="#000" />
<rect x="32" y="50" width="6.5" height="12.5" fill="#000" />
<path d="M 39.56,54.56 H 44.5 V 55.519999999999996 H 40.52 V 62.5 H 39.56 Z" fill="#000" />
               <path d="M 41.48,56.480000000000004 H 44.5 V 57.44 H 42.44 V 62.5 H 41.48 Z" fill="#000" />
<rect x="44" y="54.56" width="6.5" height="0.96" fill="#000" />
               <rect x="44" y="56.480000000000004" width="6.5" height="0.96" fill="#000" />
<rect x="50" y="54.56" width="6.5" height="0.96" fill="#000" />
               <rect x="50" y="56.480000000000004" width="6.5" height="0.96" fill="#000" />
<path d="M 56,57.44 H 60.44 V 50 H 59.48 V 56.480000000000004 H 56 Z" fill="#000" />
               <path d="M 56,55.519999999999996 H 58.52 V 50 H 57.56 V 54.56 H 56 Z" fill="#000" />
<rect x="26" y="62" width="6.5" height="12.5" fill="#000" />
<rect x="32" y="62" width="6.5" height="12.5" fill="#000" />
<rect x="39.56" y="62" width="0.96" height="12.5" fill="#000" />
               <rect x="41.48" y="62" width="0.96" height="12.5" fill="#000" />
<path d="M 27.56,74 V 81.44 H 32.5 V 80.48 H 28.52 V 74 Z" fill="#000" />
               <path d="M 29.48,74 V 79.52 H 32.5 V 78.56 H 30.44 V 74 Z" fill="#000" />
<rect x="32" y="78.56" width="6.5" height="0.96" fill="#000" />
               <rect x="32" y="80.48" width="6.5" height="0.96" fill="#000" />
<path d="M 38,81.44 H 42.44 V 74 H 41.48 V 80.48 H 38 Z" fill="#000" />
               <path d="M 38,79.52 H 40.52 V 74 H 39.56 V 78.56 H 38 Z" fill="#000" />

  </g>
</svg>